# xmcd
#
# Track frame offsets:
#	150
#	30708
#	47625
#	71661
#	106980
#	161100
#	191040
#
# Disc length: 2858 seconds
# Revision: 1
# Processed by: cddbd v1.5.2PL0 Copyright (c) Steve Scherf et al.
# Submitted via: dBpowerAMP V12.0
#
DISCID=5e0b2807
DTITLE=Dżem - 35 Urodziny - CD1
DYEAR=2015
DGENRE=Blues
TTITLE0=Wehikuł czasu - to byłby cud
TTITLE1=Być albo mieć
TTITLE2=Do przodu
TTITLE3=Człowieku co się z Tobą dzieje
TTITLE4=Cała w trawe
TTITLE5=Partyzant
TTITLE6=Prokurator i ja
EXTD=
EXTT0=
EXTT1=
EXTT2=
EXTT3=
EXTT4=
EXTT5=
EXTT6=
PLAYORDER=
